{"title":"The Disco Exorcist (2011)","uid":8096944,"size":2091855235,"categoryP":"video","categoryS":"movies","magnet":"?xt=urn:btih:05b65aeed34b2bc84482ab0841f7baa219e1c2ef&amp;dn=The+Disco+Exorcist+%282011%29&amp;tr=udp%3A%2F%2Ftracker.openbittorrent.com%3A80&amp;tr=udp%3A%2F%2Fopen.demonii.com%3A1337&amp;tr=udp%3A%2F%2Ftracker.coppersurfer.tk%3A6969&amp;tr=udp%3A%2F%2Fexodus.desync.com%3A6969","seeders":1,"leechers":0,"uploader":"RadioResearch","files":3,"time":1359862711,"description":"*******************************************************************************\n                           The Disco Exorcist (2011)\n*******************************************************************************\n\n-------------------------------------------------------------------------------\n                              General Information\n-------------------------------------------------------------------------------\nType.................: Movie\n\n\n\nVideo Format.........: AVI\nVideo Bitrate........: 3301\nResolution...........: 720 x 404\nColor................: 8 bit\nFPS..................: 29.97\nSource...............: DVD 16x9\nOriginal Format......: NTSC\nGenre................: Horror\nIMDb Rating..........: 5.8\nMovie Information....: http://www.imdb.com/title/tt1680119\n\n-------------------------------------------------------------------------------\n                               Post Information\n-------------------------------------------------------------------------------\nPosted by............: RadioResearch\n\n-------------------------------------------------------------------------------\n                                 Release Notes\n-------------------------------------------------------------------------------\nSuave swinger and womanizer Rex Romanski loves and leaves evil black magic \npriestess Rita Marie. Naturally, Rex incurs Rita's lethal wrath by spurning her. \nCan Rex figure out a way to stop Rita's subsequent rampage of revenge, murder, \nand destruction as well as reclaim the soul of his new porn starlet gal Amoreena \nJones before it's too late? \n\nEnjoy!\n\nRadioResearch\n\nGeneral\nComplete name                            : G:AVIThe Disco Exorcist (2011)The \nDisco Exorcist_Title1.avi\nFormat                                   : AVI\nFormat/Info                              : Audio Video Interleave\nFormat profile                           : OpenDML\nFile size                                : 1.95 GiB\nDuration                                 : 1h 24mn\nOverall bit rate                         : 3 301 Kbps\nMovie name                               : The_Disco_Exorcist\nWriting application                      : MEncoder 5.0\nWriting library                          : [= DigiArty videodll! =]\n\nVideo\nID                                       : 0\nFormat                                   : MPEG-4 Visual\nFormat profile                           : Simple@L1\nFormat settings, BVOP                    : No\nFormat settings, QPel                    : No\nFormat settings, GMC                     : No warppoints\nFormat settings, Matrix                  : Default (H.263)\nCodec ID                                 : DX50\nCodec ID/Hint                            : DivX 5\nDuration                                 : 1h 24mn\nBit rate                                 : 3 103 Kbps\nWidth                                    : 720 pixels\nHeight                                   : 404 pixels\nDisplay aspect ratio                     : 16:9\nFrame rate                               : 29.970 fps\nColor space                              : YUV\nChroma subsampling                       : 4:2:0\nBit depth                                : 8 bits\nScan type                                : Progressive\nCompression mode                         : Lossy\nBits/(Pixel*Frame)                       : 0.356\nStream size                              : 1.83 GiB (94%)\nWriting library                          : Lavc54.71.100\n\nAudio\nID                                       : 1\nFormat                                   : AC-3\nFormat/Info                              : Audio Coding 3\nMode extension                           : CM (complete main)\nFormat settings, Endianness              : Big\nCodec ID                                 : 2000\nDuration                                 : 1h 24mn\nBit rate mode                            : Constant\nBit rate                                 : 192 Kbps\nChannel(s)                               : 2 channels\nChannel positions                        : Front: L R\nSampling rate                            : 48.0 KHz\nBit depth                                : 16 bits\nCompression mode                         : Lossy\nStream size                              : 116 MiB (6%)\nAlignment                                : Split accross interleaves\nInterleave, duration                     : 500 ms (14.98 video frames)\nInterleave, preload duration             : 500 ms\n\n\n\n-------------------------------------------------------------------------------\nGenerated with Cool NFO Creator - http://fly.to/coolbeans\n-------------------------------------------------------------------------------\n","torrent":{"xt":"urn:btih:05b65aeed34b2bc84482ab0841f7baa219e1c2ef","amp;dn":"The+Disco+Exorcist+%282011%29","amp;tr":["udp%3A%2F%2Ftracker.openbittorrent.com%3A80","udp%3A%2F%2Fopen.demonii.com%3A1337","udp%3A%2F%2Ftracker.coppersurfer.tk%3A6969","udp%3A%2F%2Fexodus.desync.com%3A6969"],"infoHash":"05b65aeed34b2bc84482ab0841f7baa219e1c2ef","infoHashBuffer":{"type":"Buffer","data":[5,182,90,238,211,75,43,200,68,130,171,8,65,247,186,162,25,225,194,239]},"announce":[],"urlList":[]}}